<?xml version="1.0" encoding="UTF-8"?>
<svg width="120px" height="57px" viewBox="0 0 120 57" version="1.1" xmlns="http://www.w3.org/2000/svg" xmlns:xlink="http://www.w3.org/1999/xlink">
    <!-- Generator: sketchtool 50.2 (55047) - http://www.bohemiancoding.com/sketch -->
    <title>7EE2924D-3EC2-48C6-98E2-BC2D304A7004</title>
    <desc>Created with sketchtool.</desc>
    <defs></defs>
    <g id="Symbols" stroke="none" stroke-width="1" fill="none" fill-rule="evenodd">
        <g id="CSoftware_logo_Neg" transform="translate(0.000000, -1.000000)">
            <g transform="translate(0.000000, 0.662151)">
                <path d="M17.8602864,43.7326046 C16.2146849,46.0273195 13.6314065,47.463896 10.811196,47.463896 C5.30575442,47.463896 0.841378367,43.1849189 0.841378367,37.8793973 C0.841378367,32.5401945 5.30575442,28.2612174 10.811196,28.2612174 C13.7319232,28.2612174 16.2821747,29.6977939 17.9277761,31.9573633 L14.9065323,34.7997639 C14.0004463,33.4290854 12.4898243,32.5401945 10.811196,32.5401945 C7.85744186,32.5401945 5.44073395,34.9359531 5.44073395,37.8793973 C5.44073395,40.7906248 7.85744186,43.1849189 10.811196,43.1849189 C12.4898243,43.1849189 14.0004463,42.2960281 14.9065323,40.8916684 L17.8602864,43.7326046 Z M39.5790666,37.8793973 C39.5790666,43.1849189 35.1146906,47.463896 29.609249,47.463896 C24.1052434,47.463896 19.6408674,43.1849189 19.6408674,37.8793973 C19.6408674,32.5401945 24.1052434,28.2612174 29.609249,28.2612174 C35.1146906,28.2612174 39.5790666,32.5401945 39.5790666,37.8793973 Z M34.979711,37.8793973 C34.979711,40.7906248 32.597466,43.1849189 29.609249,43.1849189 C26.6554949,43.1849189 24.238787,40.7906248 24.238787,37.8793973 C24.238787,34.9359531 26.6554949,32.5401945 29.609249,32.5401945 C32.597466,32.5401945 34.979711,34.9359531 34.979711,37.8793973 Z M59.9552314,28.6024227 L52.4365845,48.1829165 C50.8254459,52.3959956 46.5290763,53.6260917 42.7022631,53.6260917 C42.0977272,53.6260917 41.560681,53.6260917 41.0566617,53.5924105 L41.6281707,49.9987726 L42.1307541,49.9987726 C44.6494146,49.9987726 46.8981161,49.3471146 47.9391816,47.1915176 L47.535679,47.1915176 L40.4190988,28.6024227 L45.3214403,28.6024227 L50.1203933,41.234338 L50.4564062,41.234338 L55.1562784,28.6024227 L59.9552314,28.6024227 Z M80.7348988,37.8793973 C80.7348988,43.1849189 76.2705227,47.463896 70.7650812,47.463896 C65.2596396,47.463896 60.7952635,43.1849189 60.7952635,37.8793973 C60.7952635,32.5401945 65.2596396,28.2612174 70.7650812,28.2612174 C76.2705227,28.2612174 80.7348988,32.5401945 80.7348988,37.8793973 Z M76.1369791,37.8793973 C76.1369791,40.7906248 73.7518622,43.1849189 70.7650812,43.1849189 C67.811327,43.1849189 65.3946191,40.7906248 65.3946191,37.8793973 C65.3946191,34.9359531 67.811327,32.5401945 70.7650812,32.5401945 C73.7518622,32.5401945 76.1369791,34.9359531 76.1369791,37.8793973 Z M89.7986304,32.5401945 L89.7986304,39.1124222 C89.7986304,42.4336817 90.3356766,43.3913993 92.6863307,43.3913993 C93.490464,43.3913993 94.1969526,43.2888913 94.8345155,43.2200645 L94.8345155,46.7814856 C94.6320462,46.848848 93.2233769,47.463896 90.6056356,47.463896 C87.5513649,47.463896 85.1001941,45.5133151 85.1001941,41.6106888 L85.1001941,32.5401945 L82.5140438,32.5401945 L82.5140438,28.6024227 L85.1001941,28.6024227 L85.1001941,21.3800013 L89.7986304,21.3800013 L89.7986304,28.6024227 L94.9020053,28.6024227 L94.9020053,32.5401945 L89.7986304,32.5401945 Z M101.21158,39.2500758 C101.717035,41.6795156 103.629724,43.3913993 106.415472,43.3913993 C108.32816,43.3913993 110.108741,42.5025085 111.115344,41.0981488 L114.102125,43.631561 C112.424933,45.9584927 109.436716,47.463896 105.878426,47.463896 C100.372984,47.463896 96.5461708,43.1849189 96.5461708,37.8793973 C96.5461708,32.5401945 100.372984,28.2612174 105.878426,28.2612174 C111.48582,28.2612174 114.741124,32.4025409 114.741124,38.1869214 C114.741124,38.5647366 114.708097,38.9410874 114.708097,39.2500758 L101.21158,39.2500758 Z M101.246043,36.2026592 C101.684009,33.9079442 103.427255,32.0613357 105.878426,32.0613357 C109.000186,32.0613357 110.108741,34.0807435 110.276748,36.2026592 L101.246043,36.2026592 Z M6.42005349,55.8900543 C6.42005349,56.6647219 5.80977372,57.1216148 4.89507203,57.1216148 C4.2230463,57.1216148 3.88272558,57.0586456 3.25808628,56.7394063 L3.54814867,56.1082499 C4.06796344,56.3630555 4.4312594,56.4157739 4.92235513,56.4157739 C5.35314085,56.4157739 5.61017633,56.2546899 5.61017633,55.9588811 C5.61017633,55.6850383 5.34739704,55.5664218 4.77158012,55.4302326 C3.96170296,55.241325 3.30690866,55.0084854 3.30690866,54.2162449 C3.30690866,53.5089397 3.86118629,53.0066505 4.7600925,53.0066505 C5.35888466,53.0066505 5.88300729,53.1618769 6.26927849,53.3317473 L5.94475325,53.9819409 C5.59868871,53.8340365 5.11190085,53.7139557 4.74286108,53.7139557 C4.34223035,53.7139557 4.11822178,53.8970057 4.11822178,54.1474181 C4.11822178,54.4315118 4.39679654,54.5515926 4.98984489,54.6892462 C5.83849277,54.882547 6.42005349,55.1549254 6.42005349,55.8900543 Z M11.4214758,55.0641326 C11.4214758,56.1975783 10.4881067,57.1157572 9.32642118,57.1157572 C8.16904353,57.1157572 7.23136661,56.1975783 7.23136661,55.0641326 C7.23136661,53.9306869 8.16904353,53.0125081 9.32642118,53.0125081 C10.4881067,53.0125081 11.4214758,53.9306869 11.4214758,55.0641326 Z M10.6058548,55.0641326 C10.6058548,55.7772955 10.0300379,56.3528047 9.32642118,56.3528047 C8.62136854,56.3528047 8.05129544,55.7772955 8.05129544,55.0641326 C8.05129544,54.3568274 8.62136854,53.7769249 9.32642118,53.7769249 C10.0300379,53.7769249 10.6058548,54.3568274 10.6058548,55.0641326 Z M13.2063646,53.7593521 L13.2063646,55.190071 L15.0888982,55.190071 L15.0888982,55.8959119 L13.2063646,55.8959119 L13.2063646,57.0703608 L12.4295143,57.0703608 L12.4295143,53.0535113 L15.396192,53.0535113 L15.396192,53.7593521 L13.2063646,53.7593521 Z M19.4369621,53.7593521 L18.1805038,53.7593521 L18.1805038,57.0703608 L17.3763704,57.0703608 L17.3763704,53.7593521 L16.1242199,53.7593521 L16.1242199,53.0535113 L19.4369621,53.0535113 L19.4369621,53.7593521 Z M24.511618,57.0703608 L24.1813489,57.0703608 L23.0656139,54.4315118 L21.9527508,57.0703608 L21.6239177,57.0703608 L20.0702171,53.0535113 L20.9360964,53.0535113 L21.824951,55.4917374 L22.9033513,53.0535113 L23.2321844,53.0535113 L24.3048408,55.4917374 L25.1936954,53.0535113 L26.0595747,53.0535113 L24.511618,57.0703608 Z M28.7835764,56.2546899 L27.0245347,56.2546899 L26.6727263,57.0703608 L25.8283863,57.0703608 L27.7051761,53.0535113 L28.1029349,53.0535113 L29.9854686,57.0703608 L29.1411285,57.0703608 L28.7835764,56.2546899 Z M27.3088533,55.5766726 L27.9019016,54.2499262 L28.4992578,55.5766726 L27.3088533,55.5766726 Z M32.4854617,56.0335655 C32.4409472,56.0394231 32.384945,56.0394231 32.3346867,56.0394231 L31.602351,56.0394231 L31.602351,57.0703608 L30.8039614,57.0703608 L30.8039614,53.0535113 L32.5414639,53.0535113 C33.6930977,53.0535113 34.0836767,53.7476369 34.0836767,54.5003386 C34.0836767,55.190071 33.805102,55.6454995 33.2852872,55.8739459 L34.2014248,57.0703608 L33.2450805,57.0703608 L32.4854617,56.0335655 Z M31.602351,55.3672634 L31.602351,53.7593521 L32.4136641,53.7593521 C33.0325596,53.7593521 33.2450805,54.1474181 33.2450805,54.5633078 C33.2450805,55.036309 32.9435305,55.3672634 32.3074036,55.3672634 L31.602351,55.3672634 Z M38.0971637,56.3630555 L38.0971637,57.0703608 L35.0744839,57.0703608 L35.0744839,53.0535113 L37.9794156,53.0535113 L37.9794156,53.7593521 L35.8498982,53.7593521 L35.8498982,54.7785746 L37.6333511,54.7785746 L37.6333511,55.4624494 L35.8498982,55.4624494 L35.8498982,56.3630555 L38.0971637,56.3630555 Z" id="Combined-Shape" fill="#0F3E82"></path>
                <path d="M90.6228671,13.3741259 L90.6185592,13.3741259 C86.4945039,13.9100964 82.9836002,15.4784689 80.1361066,21.2013445 C79.6435749,19.5509656 79.6593704,16.8227882 80.2509828,15.0699013 C81.6539083,10.9227202 85.8914039,8.60164598 89.9867402,9.58718725 C89.7325766,9.46857085 89.4683613,9.35581204 89.2027101,9.26062603 C85.5223641,7.97048954 80.4836071,9.29430723 79.2774071,12.6419259 C78.5594309,14.648154 76.6194591,15.8987517 74.3047038,16.2092045 C74.3047038,16.2092045 75.1993022,12.4383743 73.9399719,11.0017978 C73.1889688,10.1451237 73.0999398,9.20937203 72.8730593,7.57510151 C71.7788636,7.90752033 70.5740995,7.90752033 69.4138499,7.4960239 C68.7576197,7.26611308 68.1660073,6.92783666 67.661988,6.49876743 C69.4511847,5.80610618 70.3859897,5.06365532 72.1794943,3.77791203 C76.2949339,0.830074608 80.2696502,-0.0632094578 84.9680865,1.48759026 C88.151593,2.54049393 92.3029314,5.92911578 92.8055147,6.32450381 C95.9832774,8.8154484 99.2041187,10.6239825 103.204682,12.0268778 C108.300877,13.8236968 113.725905,13.5879283 115.770702,7.62049791 C116.428368,5.71531337 116.23595,3.65929562 116.113894,2.30033232 C118.915437,4.8029921 120.11015,8.8769532 118.822101,12.6873223 C117.120497,17.7131435 110.282492,20.1425832 105.128858,17.3133622 C106.719894,20.8411021 106.997032,25.49643 105.652981,29.4634899 C105.057061,31.2383429 103.822142,33.7746838 102.722202,35.1497555 C104.17395,29.1266779 102.480962,21.9745478 98.5636839,17.7131435 C97.0501901,16.0627645 95.2092991,14.7667704 93.1156805,14.0272484 C92.2871359,13.7358328 91.4571554,13.5205659 90.6228671,13.3741259 Z" id="Combined-Shape" fill="#00E1AE"></path>
                <path d="M99.0547797,14.3830976 C101.316405,15.1826601 102.703535,15.9441481 105.111627,17.3075046 C100.294007,15.7918505 98.5636839,17.7131435 98.5636839,17.7131435 C97.0501901,16.0627645 95.2092991,14.7667704 93.1156805,14.0272484 C92.2871359,13.7358328 91.4571554,13.5205659 90.6228671,13.3741259 C93.3526126,13.0197411 96.2417489,13.3916987 99.0547797,14.3830976" id="Fill-11" fill="#00C09E"></path>
            </g>
        </g>
    </g>
</svg>